<?xml version="1.0" encoding="UTF-8"?>
<!DOCTYPE svg PUBLIC "-//W3C//DTD SVG 1.1//EN" "http://www.w3.org/Graphics/SVG/1.1/DTD/svg11.dtd">
<!-- Creator: CorelDRAW 2021.5 -->
<svg xmlns="http://www.w3.org/2000/svg" xml:space="preserve" width="200mm" height="200mm" version="1.1" style="shape-rendering:geometricPrecision; text-rendering:geometricPrecision; image-rendering:optimizeQuality; fill-rule:evenodd; clip-rule:evenodd"
viewBox="0 0 20000 20000"
 xmlns:xlink="http://www.w3.org/1999/xlink"
 xmlns:xodm="http://www.corel.com/coreldraw/odm/2003">
 <defs>
  <style type="text/css">
   <![CDATA[
    .str11 {stroke:#FEFEFE;stroke-width:402.49;stroke-linecap:round;stroke-linejoin:round;stroke-miterlimit:22.9256}
    .str2 {stroke:#FEFEFE;stroke-width:402.49;stroke-linecap:round;stroke-linejoin:round;stroke-miterlimit:22.9256}
    .str8 {stroke:#FEFEFE;stroke-width:402.49;stroke-linecap:round;stroke-linejoin:round;stroke-miterlimit:22.9256}
    .str10 {stroke:#FEFEFE;stroke-width:402.49;stroke-linecap:round;stroke-linejoin:round;stroke-miterlimit:22.9256}
    .str6 {stroke:#FEFEFE;stroke-width:402.49;stroke-linecap:round;stroke-linejoin:round;stroke-miterlimit:22.9256}
    .str12 {stroke:#FEFEFE;stroke-width:402.49;stroke-linecap:round;stroke-linejoin:round;stroke-miterlimit:22.9256}
    .str4 {stroke:#FEFEFE;stroke-width:402.49;stroke-linecap:round;stroke-linejoin:round;stroke-miterlimit:22.9256}
    .str0 {stroke:#FEFEFE;stroke-width:402.49;stroke-linecap:round;stroke-linejoin:round;stroke-miterlimit:22.9256}
    .str3 {stroke:#FEFEFE;stroke-width:402.49;stroke-linecap:round;stroke-linejoin:round;stroke-miterlimit:22.9256}
    .str9 {stroke:#FEFEFE;stroke-width:402.49;stroke-linecap:round;stroke-linejoin:round;stroke-miterlimit:22.9256}
    .str5 {stroke:#FEFEFE;stroke-width:402.49;stroke-linecap:round;stroke-linejoin:round;stroke-miterlimit:22.9256}
    .str1 {stroke:#FEFEFE;stroke-width:402.49;stroke-linecap:round;stroke-linejoin:round;stroke-miterlimit:22.9256}
    .str7 {stroke:#FEFEFE;stroke-width:402.49;stroke-linecap:round;stroke-linejoin:round;stroke-miterlimit:22.9256}
    .fil1 {fill:none}
    .fil0 {fill:#CA464B}
   ]]>
  </style>
 </defs>
 <g id="Слой_x0020_1">
  <metadata id="CorelCorpID_0Corel-Layer"/>
  <circle class="fil0" cx="10254.02" cy="10164" r="7250.17"/>
  <g id="_2111442812912">
   <g>
    <path class="fil1 str0" d="M6808.45 10145.17c920.4,5.24 1840.79,10.49 2761.19,15.73 -40.22,-544.22 -468.81,-1212.6 -1392.39,-1211.46 -827.82,46.24 -1236.67,489.79 -1368.8,1195.73z"/>
    <circle class="fil1 str1" cx="8173.65" cy="8225.03" r="697.94"/>
   </g>
   <g>
    <path class="fil1 str2" d="M9599.29 10145.17c920.4,5.24 1840.8,10.49 2761.2,15.73 -40.23,-544.22 -468.82,-1212.6 -1392.4,-1211.46 -827.82,46.24 -1236.66,489.79 -1368.8,1195.73z"/>
    <circle class="fil1 str3" cx="10964.5" cy="8225.03" r="697.94"/>
   </g>
   <g>
    <path class="fil1 str4" d="M12375.04 10145.17c920.4,5.24 1840.79,10.49 2761.19,15.73 -40.23,-544.22 -468.81,-1212.6 -1392.4,-1211.46 -827.81,46.24 -1236.66,489.79 -1368.79,1195.73z"/>
    <circle class="fil1 str5" cx="13740.24" cy="8225.03" r="697.94"/>
   </g>
   <path class="fil1 str6" d="M11667.11 8158.2c457.55,0.61 920.66,9.39 1383.71,18.06m482.55 -613.51c-215.9,-331.07 -600.81,-594.71 -1181.16,-594 -558.27,31.19 -926,243.07 -1146.8,594.27"/>
   <circle class="fil1 str7" cx="12348.62" cy="6244.34" r="697.94"/>
   <path class="fil1 str8" d="M8868.72 8153.91c457.56,0.61 920.66,9.39 1383.71,18.06m482.55 -613.51c-215.9,-331.07 -600.81,-594.71 -1181.16,-594 -558.27,31.19 -926,243.07 -1146.8,594.26"/>
   <circle class="fil1 str9" cx="9550.23" cy="6240.05" r="697.94"/>
   <polygon class="fil1 str10" points="5371.82,11884.62 6289.39,11330.05 7955.4,14231.32 7037.83,14785.89 "/>
   <circle class="fil1 str11" cx="6117.21" cy="12094.64" r="96.14"/>
   <path class="fil1 str12" d="M6665.26 11843.35c527.3,-293.82 1054.59,-587.63 1581.89,-881.46 276.08,-156.75 534.36,-183.01 779.15,-110.18 606,186.26 1211.99,372.52 1817.99,558.78 476.1,151.02 470.16,863.42 -26.86,916.59 -452.32,-93.24 -904.63,-186.48 -1356.94,-279.72 444.38,117.04 888.75,234.09 1333.13,351.14 281.12,79 630.08,85.88 863.18,-27.2l2138.28 -1071.94c681.43,-293.83 1060.44,198.77 652.74,634.92 -180.02,111.26 -360.05,222.52 -540.06,333.78 -853.55,527.53 -1707.1,1055.06 -2560.66,1582.59 -328.41,195.12 -644.69,238.43 -952.22,172.59 -771.71,-202.35 -1543.42,-404.7 -2315.13,-607.05 -148.51,85.27 -297.01,170.56 -445.52,255.83"/>
  </g>
 </g>
</svg>
