<?xml version="1.0" encoding="UTF-8"?>
<svg id="_Слой_2" data-name="Слой 2" xmlns="http://www.w3.org/2000/svg" viewBox="0 0 12.76 16.45">
  <defs>
    <style>
      .cls-1 {
        fill: #1c3481;
        stroke-width: 0px;
      }
    </style>
  </defs>
  <g id="_Слой_1-2" data-name="Слой 1">
    <path class="cls-1" d="m12.76,8.23c0,2.09,0,4.19,0,6.28,0,.64-.23,1.15-.73,1.55-.64.52-1.57.51-2.22,0-.97-.78-1.94-1.57-2.91-2.36-.37-.3-.7-.29-1.07,0-.96.78-1.92,1.58-2.9,2.35-1.03.81-2.54.29-2.88-.96-.05-.18-.07-.38-.07-.57C0,10.31,0,6.11,0,1.91,0,.78.79,0,1.92,0,4.91,0,7.89,0,10.87,0c.95,0,1.69.61,1.86,1.52.03.15.03.31.03.46,0,2.08,0,4.16,0,6.25Z"/>
  </g>
</svg>