<?xml version="1.0" encoding="UTF-8"?>
<!DOCTYPE svg PUBLIC "-//W3C//DTD SVG 1.1//EN" "http://www.w3.org/Graphics/SVG/1.1/DTD/svg11.dtd">
<!-- Creator: CorelDRAW 2021.5 -->
<svg xmlns="http://www.w3.org/2000/svg" xml:space="preserve" width="200mm" height="200mm" version="1.1" style="shape-rendering:geometricPrecision; text-rendering:geometricPrecision; image-rendering:optimizeQuality; fill-rule:evenodd; clip-rule:evenodd"
viewBox="0 0 20000 20000"
 xmlns:xlink="http://www.w3.org/1999/xlink"
 xmlns:xodm="http://www.corel.com/coreldraw/odm/2003">
 <defs>
  <style type="text/css">
   <![CDATA[
    .str4 {stroke:#D6791C;stroke-width:402.49;stroke-linecap:round;stroke-linejoin:round;stroke-miterlimit:22.9256}
    .str0 {stroke:#D6791C;stroke-width:402.49;stroke-linecap:round;stroke-linejoin:round;stroke-miterlimit:22.9256}
    .str3 {stroke:#D6791C;stroke-width:402.49;stroke-linecap:round;stroke-linejoin:round;stroke-miterlimit:22.9256}
    .str10 {stroke:#FEFEFE;stroke-width:402.49;stroke-linecap:round;stroke-linejoin:round;stroke-miterlimit:22.9256}
    .str13 {stroke:#FEFEFE;stroke-width:402.49;stroke-linecap:round;stroke-linejoin:round;stroke-miterlimit:22.9256}
    .str1 {stroke:#D6791C;stroke-width:402.49;stroke-linecap:round;stroke-linejoin:round;stroke-miterlimit:22.9256}
    .str9 {stroke:#FEFEFE;stroke-width:402.49;stroke-linecap:round;stroke-linejoin:round;stroke-miterlimit:22.9256}
    .str12 {stroke:#FEFEFE;stroke-width:402.49;stroke-linecap:round;stroke-linejoin:round;stroke-miterlimit:22.9256}
    .str6 {stroke:#D6791C;stroke-width:402.49;stroke-linecap:round;stroke-linejoin:round;stroke-miterlimit:22.9256}
    .str15 {stroke:#FEFEFE;stroke-width:402.49;stroke-linecap:round;stroke-linejoin:round;stroke-miterlimit:22.9256}
    .str16 {stroke:#FEFEFE;stroke-width:402.49;stroke-linecap:round;stroke-linejoin:round;stroke-miterlimit:22.9256}
    .str7 {stroke:#D6791C;stroke-width:402.49;stroke-linecap:round;stroke-linejoin:round;stroke-miterlimit:22.9256}
    .str14 {stroke:#FEFEFE;stroke-width:402.49;stroke-linecap:round;stroke-linejoin:round;stroke-miterlimit:22.9256}
    .str2 {stroke:#D6791C;stroke-width:402.49;stroke-linecap:round;stroke-linejoin:round;stroke-miterlimit:22.9256}
    .str11 {stroke:#FEFEFE;stroke-width:402.49;stroke-linecap:round;stroke-linejoin:round;stroke-miterlimit:22.9256}
    .str5 {stroke:#D6791C;stroke-width:402.49;stroke-linecap:round;stroke-linejoin:round;stroke-miterlimit:22.9256}
    .str8 {stroke:#D6791C;stroke-width:402.49;stroke-linecap:round;stroke-linejoin:round;stroke-miterlimit:22.9256}
    .str17 {stroke:#FEFEFE;stroke-width:402.49;stroke-linecap:round;stroke-linejoin:round;stroke-miterlimit:22.9256}
    .fil1 {fill:none}
    .fil0 {fill:#FEFEFE}
    .fil3 {fill:#CA464B}
    .fil4 {fill:#FEFEFE;fill-rule:nonzero}
    .fil2 {fill:#D6791C;fill-rule:nonzero}
   ]]>
  </style>
 </defs>
 <g id="Слой_x0020_1">
  <metadata id="CorelCorpID_0Corel-Layer"/>
  <circle class="fil0" cx="10291.69" cy="9984.46" r="7250.17"/>
  <g id="_2147285645536">
   <path class="fil1 str0" d="M12252.83 14004.18c0,-571.66 0,-1143.32 0,-1714.97 -73.71,-501.1 -535.98,-977.74 -1088.37,-1007.34 -663.23,0 -1034.39,0 -1697.62,0 -573.91,36.78 -1031.88,472.17 -1108.11,1029.24 0,602.48 0,1090.59 0,1693.07 1298.03,0 2596.07,0 3894.1,0z"/>
   <line class="fil1 str1" x1="9132.6" y1="12521.35" x2="9132.6" y2= "14004.18" />
   <g>
    <path class="fil2" d="M11264.81 12526.71c0,-111.14 89.97,-201.24 200.95,-201.24 110.98,0 200.95,90.1 200.95,201.24l-401.9 0zm0 1477.47l0 -1477.47 401.9 0 0 1477.47 -401.9 0zm401.9 0c0,111.14 -89.97,201.24 -200.95,201.24 -110.98,0 -200.95,-90.1 -200.95,-201.24l401.9 0z"/>
   </g>
   <circle class="fil1 str2" cx="10307.52" cy="9658.79" r="887.1"/>
   <g>
    <path class="fil1 str3" d="M8153.62 11220.1c-566.1,0 -1132.2,0 -1698.31,0 0,-599.41 0,-1016.6 0,-1616 6.83,-713.28 619.3,-1204.19 1127.43,-1197.87 657.68,0 1195.26,0 1852.94,0"/>
    <line class="fil1 str4" x1="7254.52" y1="9688.29" x2="7254.52" y2= "11220.1" />
    <circle class="fil1 str5" cx="8426.52" cy="6851.84" r="887.1"/>
   </g>
   <g>
    <path class="fil1 str6" d="M12429.75 11220.1c566.1,0 1132.21,0 1698.31,0 0,-599.41 0,-1016.6 0,-1616 -6.82,-713.28 -619.29,-1204.19 -1127.43,-1197.87 -657.68,0 -1195.26,0 -1852.94,0"/>
    <line class="fil1 str7" x1="13328.86" y1="9688.29" x2="13328.86" y2= "11220.1" />
    <circle class="fil1 str8" cx="12156.86" cy="6851.84" r="887.1"/>
   </g>
  </g>
  <circle class="fil3" cx="58565.77" cy="10857.34" r="7250.17"/>
  <g id="_2147285644240">
   <path class="fil1 str9" d="M60526.91 14877.06c0,-571.66 0,-1143.32 0,-1714.97 -73.71,-501.1 -535.98,-977.74 -1088.37,-1007.34 -663.23,0 -1034.39,0 -1697.62,0 -573.91,36.78 -1031.88,472.17 -1108.11,1029.24 0,602.48 0,1090.59 0,1693.07 1298.03,0 2596.07,0 3894.1,0z"/>
   <line class="fil1 str10" x1="57406.68" y1="13394.23" x2="57406.68" y2= "14877.06" />
   <g>
    <path class="fil4" d="M59538.89 13399.59c0,-111.14 89.97,-201.24 200.95,-201.24 110.98,0 200.95,90.1 200.95,201.24l-401.9 0zm0 1477.47l0 -1477.47 401.9 0 0 1477.47 -401.9 0zm401.9 0c0,111.14 -89.97,201.24 -200.95,201.24 -110.98,0 -200.95,-90.1 -200.95,-201.24l401.9 0z"/>
   </g>
   <circle class="fil1 str11" cx="58581.6" cy="10531.67" r="887.1"/>
   <g>
    <path class="fil1 str12" d="M56427.7 12092.98c-566.1,0 -1132.2,0 -1698.31,0 0,-599.41 0,-1016.6 0,-1616 6.83,-713.28 619.3,-1204.19 1127.43,-1197.87 657.68,0 1195.26,0 1852.94,0"/>
    <line class="fil1 str13" x1="55528.6" y1="10561.17" x2="55528.6" y2= "12092.98" />
    <circle class="fil1 str14" cx="56700.6" cy="7724.72" r="887.1"/>
   </g>
   <g>
    <path class="fil1 str15" d="M60703.83 12092.98c566.1,0 1132.21,0 1698.31,0 0,-599.41 0,-1016.6 0,-1616 -6.82,-713.28 -619.29,-1204.19 -1127.43,-1197.87 -657.68,0 -1195.26,0 -1852.94,0"/>
    <line class="fil1 str16" x1="61602.94" y1="10561.17" x2="61602.94" y2= "12092.98" />
    <circle class="fil1 str17" cx="60430.94" cy="7724.72" r="887.1"/>
   </g>
  </g>
 </g>
</svg>
