<?xml version="1.0" encoding="UTF-8"?>
<!DOCTYPE svg PUBLIC "-//W3C//DTD SVG 1.1//EN" "http://www.w3.org/Graphics/SVG/1.1/DTD/svg11.dtd">
<!-- Creator: CorelDRAW 2021.5 -->
<svg xmlns="http://www.w3.org/2000/svg" xml:space="preserve" width="200mm" height="200mm" version="1.1" style="shape-rendering:geometricPrecision; text-rendering:geometricPrecision; image-rendering:optimizeQuality; fill-rule:evenodd; clip-rule:evenodd"
viewBox="0 0 20000 20000"
 xmlns:xlink="http://www.w3.org/1999/xlink"
 xmlns:xodm="http://www.corel.com/coreldraw/odm/2003">
 <defs>
  <style type="text/css">
   <![CDATA[
    .str12 {stroke:#FEFEFE;stroke-width:402.49;stroke-linecap:round;stroke-linejoin:round;stroke-miterlimit:22.9256}
    .str13 {stroke:#FEFEFE;stroke-width:402.49;stroke-linecap:round;stroke-linejoin:round;stroke-miterlimit:22.9256}
    .str9 {stroke:#FEFEFE;stroke-width:402.49;stroke-linecap:round;stroke-linejoin:round;stroke-miterlimit:22.9256}
    .str10 {stroke:#FEFEFE;stroke-width:402.49;stroke-linecap:round;stroke-linejoin:round;stroke-miterlimit:22.9256}
    .str3 {stroke:#D6791C;stroke-width:402.49;stroke-linecap:round;stroke-linejoin:round;stroke-miterlimit:22.9256}
    .str0 {stroke:#D6791C;stroke-width:402.49;stroke-linecap:round;stroke-linejoin:round;stroke-miterlimit:22.9256}
    .str1 {stroke:#D6791C;stroke-width:402.49;stroke-linecap:round;stroke-linejoin:round;stroke-miterlimit:22.9256}
    .str4 {stroke:#D6791C;stroke-width:402.49;stroke-linecap:round;stroke-linejoin:round;stroke-miterlimit:22.9256}
    .str16 {stroke:#FEFEFE;stroke-width:402.49;stroke-linecap:round;stroke-linejoin:round;stroke-miterlimit:22.9256}
    .str15 {stroke:#FEFEFE;stroke-width:402.49;stroke-linecap:round;stroke-linejoin:round;stroke-miterlimit:22.9256}
    .str6 {stroke:#D6791C;stroke-width:402.49;stroke-linecap:round;stroke-linejoin:round;stroke-miterlimit:22.9256}
    .str7 {stroke:#D6791C;stroke-width:402.49;stroke-linecap:round;stroke-linejoin:round;stroke-miterlimit:22.9256}
    .str14 {stroke:#FEFEFE;stroke-width:402.49;stroke-linecap:round;stroke-linejoin:round;stroke-miterlimit:22.9256}
    .str11 {stroke:#FEFEFE;stroke-width:402.49;stroke-linecap:round;stroke-linejoin:round;stroke-miterlimit:22.9256}
    .str2 {stroke:#D6791C;stroke-width:402.49;stroke-linecap:round;stroke-linejoin:round;stroke-miterlimit:22.9256}
    .str5 {stroke:#D6791C;stroke-width:402.49;stroke-linecap:round;stroke-linejoin:round;stroke-miterlimit:22.9256}
    .str17 {stroke:#FEFEFE;stroke-width:402.49;stroke-linecap:round;stroke-linejoin:round;stroke-miterlimit:22.9256}
    .str8 {stroke:#D6791C;stroke-width:402.49;stroke-linecap:round;stroke-linejoin:round;stroke-miterlimit:22.9256}
    .fil1 {fill:none}
    .fil0 {fill:#FEFEFE}
    .fil3 {fill:#CA464B}
    .fil4 {fill:#FEFEFE;fill-rule:nonzero}
    .fil2 {fill:#D6791C;fill-rule:nonzero}
   ]]>
  </style>
 </defs>
 <g id="Слой_x0020_1">
  <metadata id="CorelCorpID_0Corel-Layer"/>
  <circle class="fil0" cx="45898.13" cy="-14666.16" r="7250.17"/>
  <g id="_2111155176304">
   <path class="fil1 str0" d="M47859.27 -10646.44c0,-571.66 0,-1143.32 0,-1714.97 -73.71,-501.1 -535.98,-977.74 -1088.37,-1007.34 -663.23,0 -1034.39,0 -1697.62,0 -573.91,36.78 -1031.88,472.17 -1108.11,1029.24 0,602.48 0,1090.59 0,1693.07 1298.03,0 2596.07,0 3894.1,0z"/>
   <line class="fil1 str1" x1="44739.04" y1="-12129.27" x2="44739.04" y2= "-10646.44" />
   <g>
    <path class="fil2" d="M46871.25 -12123.91c0,-111.14 89.97,-201.24 200.95,-201.24 110.98,0 200.95,90.1 200.95,201.24l-401.9 0zm0 1477.47l0 -1477.47 401.9 0 0 1477.47 -401.9 0zm401.9 0c0,111.14 -89.97,201.24 -200.95,201.24 -110.98,0 -200.95,-90.1 -200.95,-201.24l401.9 0z"/>
   </g>
   <circle class="fil1 str2" cx="45913.96" cy="-14991.83" r="887.1"/>
   <g>
    <path class="fil1 str3" d="M43760.06 -13430.52c-566.1,0 -1132.2,0 -1698.31,0 0,-599.41 0,-1016.6 0,-1616 6.83,-713.28 619.3,-1204.19 1127.43,-1197.87 657.68,0 1195.26,0 1852.94,0"/>
    <line class="fil1 str4" x1="42860.96" y1="-14962.33" x2="42860.96" y2= "-13430.52" />
    <circle class="fil1 str5" cx="44032.96" cy="-17798.78" r="887.1"/>
   </g>
   <g>
    <path class="fil1 str6" d="M48036.19 -13430.52c566.1,0 1132.21,0 1698.31,0 0,-599.41 0,-1016.6 0,-1616 -6.82,-713.28 -619.29,-1204.19 -1127.43,-1197.87 -657.68,0 -1195.26,0 -1852.94,0"/>
    <line class="fil1 str7" x1="48935.3" y1="-14962.33" x2="48935.3" y2= "-13430.52" />
    <circle class="fil1 str8" cx="47763.3" cy="-17798.78" r="887.1"/>
   </g>
  </g>
  <circle class="fil3" cx="9841.16" cy="9704.1" r="7250.17"/>
  <g id="_2111155178368">
   <path class="fil1 str9" d="M11802.3 13723.82c0,-571.66 0,-1143.32 0,-1714.97 -73.71,-501.1 -535.98,-977.74 -1088.37,-1007.34 -663.23,0 -1034.39,0 -1697.62,0 -573.91,36.78 -1031.88,472.17 -1108.11,1029.24 0,602.48 0,1090.59 0,1693.07 1298.03,0 2596.07,0 3894.1,0z"/>
   <line class="fil1 str10" x1="8682.07" y1="12240.99" x2="8682.07" y2= "13723.82" />
   <g>
    <path class="fil4" d="M10814.28 12246.35c0,-111.14 89.97,-201.24 200.95,-201.24 110.98,0 200.95,90.1 200.95,201.24l-401.9 0zm0 1477.47l0 -1477.47 401.9 0 0 1477.47 -401.9 0zm401.9 0c0,111.14 -89.97,201.24 -200.95,201.24 -110.98,0 -200.95,-90.1 -200.95,-201.24l401.9 0z"/>
   </g>
   <circle class="fil1 str11" cx="9856.99" cy="9378.43" r="887.1"/>
   <g>
    <path class="fil1 str12" d="M7703.09 10939.74c-566.1,0 -1132.2,0 -1698.31,0 0,-599.41 0,-1016.6 0,-1616 6.83,-713.28 619.3,-1204.19 1127.43,-1197.87 657.68,0 1195.26,0 1852.94,0"/>
    <line class="fil1 str13" x1="6803.99" y1="9407.93" x2="6803.99" y2= "10939.74" />
    <circle class="fil1 str14" cx="7975.99" cy="6571.48" r="887.1"/>
   </g>
   <g>
    <path class="fil1 str15" d="M11979.22 10939.74c566.1,0 1132.21,0 1698.31,0 0,-599.41 0,-1016.6 0,-1616 -6.82,-713.28 -619.29,-1204.19 -1127.43,-1197.87 -657.68,0 -1195.26,0 -1852.94,0"/>
    <line class="fil1 str16" x1="12878.33" y1="9407.93" x2="12878.33" y2= "10939.74" />
    <circle class="fil1 str17" cx="11706.33" cy="6571.48" r="887.1"/>
   </g>
  </g>
 </g>
</svg>
