<?xml version="1.0" encoding="UTF-8"?>
<svg id="_Слой_2" data-name="Слой 2" xmlns="http://www.w3.org/2000/svg" viewBox="0 0 13.51 17">
  <defs>
    <style>
      .cls-1 {
        fill: #1c3481;
        fill-rule: evenodd;
        stroke-width: 0px;
      }
    </style>
  </defs>
  <g id="_Слой_1-2" data-name="Слой 1">
    <path class="cls-1" d="m6.76,1.31c-1.63,0-2.91,1.27-2.91,2.78s1.28,2.78,2.91,2.78,2.91-1.27,2.91-2.78-1.28-2.78-2.91-2.78Zm-4.21,2.78C2.54,1.81,4.45,0,6.76,0s4.21,1.81,4.21,4.09-1.91,4.09-4.21,4.09-4.21-1.81-4.21-4.09Zm6.54,7c-1.54-.25-3.11-.25-4.65,0l-.18.03-.11-.65.11.65c-1.68.28-2.94,1.78-2.94,3.58,0,.57.44.99.94.99h9.02c.5,0,.94-.42.94-.99,0-1.8-1.26-3.31-2.94-3.58l.11-.65-.11.65-.18-.03Zm.21-1.29l-.11.65.11-.65.18.03c2.34.39,4.04,2.46,4.04,4.87,0,1.25-.99,2.3-2.25,2.3H2.25c-1.26,0-2.25-1.05-2.25-2.3,0-2.41,1.7-4.49,4.04-4.87l.18-.03.11.65-.11-.65c1.68-.28,3.39-.28,5.07,0Z"/>
  </g>
</svg>