<?xml version="1.0" encoding="UTF-8"?>
<svg id="_Слой_2" data-name="Слой 2" xmlns="http://www.w3.org/2000/svg" viewBox="0 0 274.71 31.28">
  <defs>
    <style>
      .cls-1, .cls-2 {
        fill: #1c3481;
        stroke-width: 0px;
      }

      .cls-2, .cls-3 {
        fill-rule: evenodd;
      }

      .cls-3 {
        fill: #fff;
        stroke: #1c3481;
        stroke-miterlimit: 10;
        stroke-width: .5px;
      }
    </style>
  </defs>
  <g id="_Слой_1-2" data-name="Слой 1">
    <g>
      <path class="cls-1" d="m53.9,3.9h1.29v6.18l4.21-6.18h1.42v8.14h-1.3v-6.28l-4.22,6.28h-1.4V3.9Z"/>
      <path class="cls-1" d="m62.87,5.84h1.28v2.51h3.18v-2.51h1.28v6.2h-1.28v-2.64h-3.18v2.64h-1.28v-6.2Z"/>
      <path class="cls-1" d="m70.54,5.84h3.15c1.43,0,1.99.67,1.99,1.58,0,.78-.42,1.26-1.22,1.33,1.08.06,1.54.8,1.54,1.55,0,.96-.65,1.74-2.29,1.74h-3.17v-6.2Zm2.95,2.49c.58,0,.92-.23.92-.72s-.32-.72-.91-.72h-1.68v1.45s1-.01,1.67-.01Zm.26,2.65c.62,0,.96-.3.96-.79s-.35-.79-.97-.79h-1.92v1.58h1.93Z"/>
      <path class="cls-1" d="m76.9,8.94c0-1.86,1.43-3.27,3.35-3.27,1.8,0,2.84,1.49,2.84,2.99v.6h-4.95c.14.96.82,1.82,2.22,1.82,1.52,0,2.45-.65,2.46-.65v1.16s-.67.64-2.48.64c-2.18,0-3.43-1.5-3.43-3.29Zm4.89-.7c-.05-.48-.36-1.52-1.71-1.52s-1.81,1.04-1.88,1.52h3.6Z"/>
      <path class="cls-1" d="m84.05,8.94c0-1.81,1.38-3.27,3.39-3.27.77,0,1.67.23,2.22.74v1.33s-.73-.94-2.22-.94c-1.22,0-2.13.96-2.13,2.13,0,1.28.88,2.15,2.25,2.15,1.45,0,2.22-.65,2.22-.65v1.2c-.56.44-1.58.59-2.22.59-2.31,0-3.51-1.48-3.51-3.29Z"/>
      <path class="cls-1" d="m92.99,6.9h-2.42v-1.06h6.12v1.06h-2.4v5.15h-1.3v-5.15Z"/>
      <path class="cls-1" d="m97.88,5.84h1.3v4.51l3.09-4.51h1.38v6.2h-1.3v-4.52l-3.11,4.52h-1.37v-6.2Z"/>
      <path class="cls-1" d="m111.96,10.99v3.51h-1.22v-2.46h-5.4v-6.2h1.22v5.15h3.12v-5.15h1.22v5.15h1.06Z"/>
      <path class="cls-1" d="m113.4,5.84h1.3v4.51l3.09-4.51h1.38v6.2h-1.3v-4.52l-3.11,4.52h-1.37v-6.2Z"/>
      <path class="cls-1" d="m120.61,8.95c0-1.81,1.51-3.29,3.39-3.29s3.39,1.48,3.39,3.29-1.51,3.27-3.39,3.27-3.39-1.46-3.39-3.27Zm5.54,0c0-1.18-.92-2.12-2.15-2.12s-2.15.95-2.15,2.12.92,2.11,2.15,2.11,2.15-.95,2.15-2.11Z"/>
      <path class="cls-1" d="m128.84,5.84h1.28v2.51h3.18v-2.51h1.28v6.2h-1.28v-2.64h-3.18v2.64h-1.28v-6.2Z"/>
      <path class="cls-1" d="m136.51,5.84h1.28v2.51h3.18v-2.51h1.28v6.2h-1.28v-2.64h-3.18v2.64h-1.28v-6.2Z"/>
      <path class="cls-1" d="m143.7,8.95c0-1.81,1.34-3.29,3.24-3.29.9,0,1.66.35,2.09.78v-.6h1.28v6.2h-1.31v-.64c-.4.42-1.06.82-2.06.82-1.89,0-3.24-1.46-3.24-3.27Zm5.4-.01c0-1.34-.91-2.12-2.06-2.12s-2.04.95-2.04,2.12.88,2.13,2.04,2.13,2.06-.78,2.06-2.13Z"/>
      <path class="cls-1" d="m157.83,12.05h-1.3v-2.07h-1.94l-1.14,2.07h-1.45l1.4-2.4c-.78-.17-1.3-.88-1.3-1.79,0-1.21.92-2.02,2.31-2.02h3.41v6.2Zm-1.3-3.2v-1.94h-1.94c-.84,0-1.18.38-1.18.97s.34.97,1.18.97h1.94Z"/>
      <path class="cls-1" d="m162.87,5.84h1.3v2.27l2.28-2.27h1.62l-2.96,2.79,3.18,3.41h-1.62l-2.49-2.71v2.71h-1.3v-6.2Z"/>
      <path class="cls-1" d="m168.29,8.95c0-1.81,1.34-3.29,3.24-3.29.9,0,1.66.35,2.09.78v-.6h1.28v6.2h-1.31v-.64c-.4.42-1.06.82-2.06.82-1.89,0-3.24-1.46-3.24-3.27Zm5.4-.01c0-1.34-.91-2.12-2.06-2.12s-2.04.95-2.04,2.12.88,2.13,2.04,2.13,2.06-.78,2.06-2.13Z"/>
      <path class="cls-1" d="m176.83,5.84h1.3v.6c.43-.43,1.19-.78,2.09-.78,1.9,0,3.24,1.48,3.24,3.29s-1.34,3.27-3.24,3.27c-1.02,0-1.68-.4-2.09-.84v3.2h-1.3V5.84Zm5.36,3.11c0-1.18-.79-2.13-1.95-2.13s-2.18.78-2.18,2.13,1.02,2.12,2.18,2.12,1.95-.95,1.95-2.12Z"/>
      <path class="cls-1" d="m186.12,6.9h-2.42v-1.06h6.12v1.06h-2.4v5.15h-1.3v-5.15Z"/>
      <path class="cls-1" d="m190.18,8.95c0-1.81,1.34-3.29,3.24-3.29.9,0,1.66.35,2.09.78v-.6h1.28v6.2h-1.31v-.64c-.4.42-1.06.82-2.06.82-1.9,0-3.24-1.46-3.24-3.27Zm5.4-.01c0-1.34-.91-2.12-2.06-2.12s-2.04.95-2.04,2.12.88,2.13,2.04,2.13,2.06-.78,2.06-2.13Z"/>
      <path class="cls-1" d="m53.9,18.3h1.34v3.38l3.78-3.38h1.75l-4.16,3.75,4.46,4.39h-1.76l-4.07-3.92v3.92h-1.34v-8.14Z"/>
      <path class="cls-1" d="m61.18,23.35c0-1.81,1.34-3.29,3.24-3.29.9,0,1.66.35,2.09.78v-.6h1.28v6.2h-1.31v-.64c-.4.42-1.06.82-2.06.82-1.89,0-3.24-1.46-3.24-3.27Zm5.4-.01c0-1.34-.91-2.12-2.06-2.12s-2.04.95-2.04,2.12.88,2.13,2.04,2.13,2.06-.78,2.06-2.13Z"/>
      <path class="cls-1" d="m69.72,20.24h1.3v.6c.43-.43,1.19-.78,2.09-.78,1.9,0,3.24,1.48,3.24,3.29s-1.34,3.27-3.24,3.27c-1.02,0-1.68-.4-2.09-.84v3.2h-1.3v-8.74Zm5.36,3.11c0-1.18-.79-2.13-1.95-2.13s-2.18.78-2.18,2.13,1.02,2.12,2.18,2.12,1.95-.95,1.95-2.12Z"/>
      <path class="cls-1" d="m77.3,23.35c0-1.81,1.34-3.29,3.24-3.29.9,0,1.66.35,2.09.78v-.6h1.28v6.2h-1.31v-.64c-.4.42-1.06.82-2.06.82-1.89,0-3.24-1.46-3.24-3.27Zm5.4-.01c0-1.34-.91-2.12-2.06-2.12s-2.04.95-2.04,2.12.88,2.13,2.04,2.13,2.06-.78,2.06-2.13Z"/>
      <path class="cls-1" d="m91.45,20.24v6.2h-1.3v-2.94s-.42.96-1.93.96c-1.39,0-2.49-.88-2.49-2.58v-1.64h1.3v1.51c0,1,.54,1.56,1.39,1.56.9,0,1.74-.59,1.74-1.75v-1.32h1.3Z"/>
      <path class="cls-1" d="m92.89,23.35c0-1.81,1.34-3.29,3.24-3.29.9,0,1.66.35,2.09.78v-.6h1.28v6.2h-1.31v-.64c-.4.42-1.06.82-2.06.82-1.89,0-3.24-1.46-3.24-3.27Zm5.4-.01c0-1.34-.91-2.12-2.06-2.12s-2.04.95-2.04,2.12.88,2.13,2.04,2.13,2.06-.78,2.06-2.13Z"/>
      <path class="cls-1" d="m100.96,23.34c0-1.86,1.43-3.27,3.35-3.27,1.8,0,2.84,1.49,2.84,2.99v.6h-4.95c.14.96.82,1.82,2.22,1.82,1.52,0,2.45-.65,2.46-.65v1.16s-.67.64-2.48.64c-2.18,0-3.43-1.5-3.43-3.29Zm4.89-.7c-.05-.48-.36-1.52-1.71-1.52s-1.81,1.04-1.88,1.52h3.6Z"/>
      <path class="cls-1" d="m108.59,20.24h3.15c1.43,0,1.99.67,1.99,1.58,0,.78-.42,1.26-1.22,1.33,1.08.06,1.54.8,1.54,1.55,0,.96-.65,1.74-2.29,1.74h-3.17v-6.2Zm2.95,2.49c.58,0,.92-.23.92-.72s-.32-.72-.91-.72h-1.68v1.45s1-.01,1.67-.01Zm.26,2.65c.62,0,.96-.3.96-.79s-.35-.79-.97-.79h-1.92v1.58h1.93Z"/>
      <path class="cls-1" d="m114.95,23.35c0-1.81,1.51-3.29,3.39-3.29s3.39,1.48,3.39,3.29-1.51,3.27-3.39,3.27-3.39-1.46-3.39-3.27Zm5.54,0c0-1.18-.92-2.12-2.15-2.12s-2.15.95-2.15,2.12.92,2.11,2.15,2.11,2.15-.95,2.15-2.11Z"/>
      <path class="cls-1" d="m123.07,22.3h4.46v1.22h-4.46v-1.22Z"/>
      <path class="cls-1" d="m134.4,24.13c-.49.07-1.36.17-2.23.17-1.83,0-3.24-.83-3.24-3v-3h1.31v3c0,1.45.88,1.75,1.93,1.75.84,0,1.66-.07,2.23-.13v-4.62h1.31v8.14h-1.31v-2.31Z"/>
      <path class="cls-1" d="m137.27,23.34c0-1.86,1.43-3.27,3.35-3.27,1.8,0,2.84,1.49,2.84,2.99v.6h-4.95c.14.96.82,1.82,2.22,1.82,1.52,0,2.45-.65,2.46-.65v1.16s-.67.64-2.48.64c-2.18,0-3.43-1.5-3.43-3.29Zm4.89-.7c-.05-.48-.36-1.52-1.71-1.52s-1.81,1.04-1.88,1.52h3.6Z"/>
      <path class="cls-1" d="m144.9,20.24h1.3v.6c.43-.43,1.19-.78,2.09-.78,1.89,0,3.24,1.48,3.24,3.29s-1.34,3.27-3.24,3.27c-1.02,0-1.68-.4-2.09-.84v3.2h-1.3v-8.74Zm5.36,3.11c0-1.18-.79-2.13-1.95-2.13s-2.18.78-2.18,2.13,1.02,2.12,2.18,2.12,1.95-.95,1.95-2.12Z"/>
      <path class="cls-1" d="m152.96,20.24h1.3v2.27l2.28-2.27h1.62l-2.96,2.79,3.18,3.41h-1.62l-2.49-2.71v2.71h-1.3v-6.2Z"/>
      <path class="cls-1" d="m158.38,23.34c0-1.86,1.43-3.27,3.35-3.27,1.8,0,2.84,1.49,2.84,2.99v.6h-4.95c.14.96.82,1.82,2.22,1.82,1.52,0,2.45-.65,2.46-.65v1.16s-.67.64-2.48.64c-2.18,0-3.43-1.5-3.43-3.29Zm4.89-.7c-.05-.48-.36-1.52-1.71-1.52s-1.81,1.04-1.88,1.52h3.6Z"/>
      <path class="cls-1" d="m165.53,23.34c0-1.81,1.38-3.27,3.39-3.27.77,0,1.67.23,2.22.74v1.33s-.73-.94-2.22-.94c-1.22,0-2.13.96-2.13,2.13,0,1.28.88,2.15,2.25,2.15,1.45,0,2.22-.65,2.22-.65v1.2c-.56.44-1.58.59-2.22.59-2.31,0-3.51-1.48-3.51-3.29Z"/>
      <path class="cls-1" d="m172.16,23.34c0-1.81,1.38-3.27,3.39-3.27.77,0,1.67.23,2.22.74v1.33s-.73-.94-2.22-.94c-1.22,0-2.13.96-2.13,2.13,0,1.28.88,2.15,2.25,2.15,1.45,0,2.22-.65,2.22-.65v1.2c-.56.44-1.58.59-2.22.59-2.31,0-3.51-1.48-3.51-3.29Z"/>
      <path class="cls-1" d="m179.28,20.24h1.3v2.27l2.28-2.27h1.62l-2.96,2.79,3.18,3.41h-1.62l-2.49-2.71v2.71h-1.3v-6.2Z"/>
      <path class="cls-1" d="m184.69,23.35c0-1.81,1.51-3.29,3.39-3.29s3.39,1.48,3.39,3.29-1.51,3.27-3.39,3.27-3.39-1.46-3.39-3.27Zm5.54,0c0-1.18-.92-2.12-2.15-2.12s-2.15.95-2.15,2.12.92,2.11,2.15,2.11,2.15-.95,2.15-2.11Z"/>
      <path class="cls-1" d="m192.92,20.24h1.3v4.51l3.09-4.51h1.38v6.2h-1.3v-4.52l-3.11,4.52h-1.37v-6.2Zm.95-2.87h1.21c0,.35.18,1,.72,1s.73-.65.73-1h1.21c0,.92-.54,2.05-1.94,2.05s-1.93-1.13-1.93-2.05Z"/>
      <path class="cls-1" d="m210.56,20.98c0,1.61-1.26,2.67-2.91,2.67h-2.48v2.79h-1.31v-8.14h3.83c1.63,0,2.88,1.07,2.88,2.67Zm-1.34.02c0-.89-.74-1.48-1.63-1.48h-2.42v2.93h2.42c.89,0,1.63-.58,1.63-1.45Z"/>
      <path class="cls-1" d="m211.27,23.34c0-1.86,1.43-3.27,3.35-3.27,1.8,0,2.84,1.49,2.84,2.99v.6h-4.95c.14.96.82,1.82,2.22,1.82,1.52,0,2.45-.65,2.46-.65v1.16s-.67.64-2.48.64c-2.18,0-3.43-1.5-3.43-3.29Zm4.89-.7c-.05-.48-.36-1.52-1.71-1.52s-1.81,1.04-1.88,1.52h3.6Z"/>
      <path class="cls-1" d="m218.42,23.34c0-1.81,1.38-3.27,3.39-3.27.77,0,1.67.23,2.22.74v1.33s-.73-.94-2.22-.94c-1.22,0-2.13.96-2.13,2.13,0,1.28.88,2.15,2.25,2.15,1.45,0,2.22-.65,2.22-.65v1.2c-.56.44-1.58.59-2.22.59-2.31,0-3.51-1.48-3.51-3.29Z"/>
      <path class="cls-1" d="m225.54,20.24h5.89v6.2h-1.3v-5.15h-3.3v5.15h-1.3v-6.2Z"/>
      <path class="cls-1" d="m235.23,25.73l-2.6-5.48h1.36l1.92,4.11,1.92-4.11h1.35l-4.19,8.7h-1.38l1.62-3.21Z"/>
      <path class="cls-1" d="m239.66,23.17c0-4.87,4.39-3.45,4.39-4.87l1.31-.24c0,2.7-4.01,1.21-4.41,3.9.29-.42,1.03-.91,2.04-.91,1.69,0,2.78,1.15,2.78,2.79s-1.27,2.78-3.06,2.78-3.05-1.14-3.05-3.45Zm4.81.64c0-1.06-.58-1.79-1.76-1.79-1.06,0-1.76.89-1.76,1.79s.68,1.67,1.76,1.67,1.76-.72,1.76-1.67Z"/>
      <path class="cls-1" d="m249.19,20.24h1.31l2.94,6.2h-1.32l-2.27-4.87-2.28,4.87h-1.32l2.94-6.2Z"/>
      <path class="cls-1" d="m254.64,20.24h1.3v4.51l3.09-4.51h1.38v6.2h-1.3v-4.52l-3.11,4.52h-1.37v-6.2Z"/>
      <path class="cls-1" d="m262.33,20.24h1.3v2.27l2.28-2.27h1.62l-2.96,2.79,3.18,3.41h-1.62l-2.49-2.71v2.71h-1.3v-6.2Z"/>
      <path class="cls-1" d="m268.94,20.24h1.3v4.51l3.09-4.51h1.38v6.2h-1.3v-4.52l-3.11,4.52h-1.37v-6.2Z"/>
    </g>
    <g>
      <path class="cls-2" d="m20.93,0c8.64,0,15.65,7,15.65,15.65s-7.01,15.64-15.65,15.64-15.65-7.01-15.65-15.64S12.29,0,20.93,0Z"/>
      <path class="cls-3" d="m.64,23.23h7.41l1.86-1.03h23.06l2,1.05h6.25c-5.37-4.75-10.25-9.29-15.63-14.03-1.15-.75-2.82-.3-4.13,1.09.23.25.44.46.66.71-.25-.22-.43-.47-.66-.71-1.8-2-3.4-3.15-5.16-1.48L.64,23.23h0Z"/>
    </g>
  </g>
</svg>